<?xml version="1.0"?>
<svg xmlns="http://www.w3.org/2000/svg" xmlns:xlink="http://www.w3.org/1999/xlink" xmlns:svgjs="http://svgjs.com/svgjs" version="1.1" width="512" height="512" x="0" y="0" viewBox="0 0 512 512" style="enable-background:new 0 0 512 512" xml:space="preserve" class=""><g><g xmlns="http://www.w3.org/2000/svg"><path d="m46 180h45v317c0 8.291 6.709 15 15 15h300c8.291 0 15-6.709 15-15v-317h45c8.291 0 15-6.709 15-15s-6.709-15-15-15h-420c-8.291 0-15 6.709-15 15s6.709 15 15 15zm135 272c0 8.291-6.709 15-15 15s-15-6.709-15-15v-242c0-8.291 6.709-15 15-15s15 6.709 15 15zm90 0c0 8.291-6.709 15-15 15s-15-6.709-15-15v-242c0-8.291 6.709-15 15-15s15 6.709 15 15zm90 0c0 8.291-6.709 15-15 15s-15-6.709-15-15v-242c0-8.291 6.709-15 15-15s15 6.709 15 15z" fill="#ffffff" data-original="#000000" style="" class=""/><path d="m451 75c0-8.291-6.709-15-15-15h-105v-45c0-8.291-6.709-15-15-15h-120c-8.291 0-15 6.709-15 15v45h-105c-8.291 0-15 6.709-15 15v45h390zm-240-45h90v30h-90z" fill="#ffffff" data-original="#000000" style="" class=""/></g></g></svg>
